<svg width="118" height="25" viewBox="0 0 118 25" fill="none" xmlns="http://www.w3.org/2000/svg">
<path d="M60.7156 13.7209C59.9114 14.1602 59.0611 14.4832 58.1646 14.6899C57.2813 14.8966 56.3848 15 55.4751 15C54.3809 15 53.3789 14.8256 52.4693 14.4767C51.5596 14.1279 50.7686 13.637 50.0962 13.0039C49.437 12.3708 48.9229 11.615 48.5537 10.7364C48.1846 9.84496 48 8.86305 48 7.7907C48 6.70543 48.1912 5.72351 48.5735 4.84496C48.969 3.95349 49.5095 3.19767 50.1951 2.57752C50.8806 1.94444 51.6782 1.45349 52.5879 1.10465C53.4976 0.755814 54.4798 0.581396 55.5345 0.581396C56.4573 0.581396 57.3406 0.717055 58.1844 0.988372C59.0413 1.25969 59.806 1.72481 60.4783 2.38372L59.2325 3.66279C58.7579 3.15892 58.1778 2.77132 57.4922 2.5C56.8199 2.22868 56.1277 2.09302 55.4158 2.09302C54.6116 2.09302 53.8667 2.23514 53.1812 2.51938C52.4956 2.80362 51.8958 3.19767 51.3816 3.70155C50.8806 4.20543 50.4851 4.8062 50.1951 5.50388C49.9182 6.20155 49.7798 6.96382 49.7798 7.7907C49.7798 8.60465 49.9182 9.36046 50.1951 10.0581C50.4851 10.7558 50.8806 11.363 51.3816 11.8798C51.8958 12.3837 52.5088 12.7778 53.2207 13.062C53.9326 13.3463 54.7171 13.4884 55.574 13.4884C56.1409 13.4884 56.7342 13.4238 57.3538 13.2946C57.9734 13.1525 58.5403 12.9522 59.0545 12.6938V8.48837H55.8311V6.97674H60.7156V13.7209Z" fill="white"/>
<path d="M63.9256 7.73256C63.9256 7.31912 63.9124 6.93152 63.8861 6.56977C63.8597 6.20801 63.8465 5.87855 63.8465 5.5814H65.3099C65.3099 5.82687 65.3165 6.07235 65.3297 6.31783C65.3429 6.56331 65.3494 6.81525 65.3494 7.07364H65.389C65.4945 6.854 65.6395 6.64083 65.8241 6.43411C66.0218 6.22739 66.2525 6.04651 66.5162 5.89147C66.7799 5.72351 67.0765 5.59431 67.4061 5.50388C67.7357 5.40052 68.0916 5.34884 68.474 5.34884C68.5794 5.34884 68.6849 5.3553 68.7904 5.36822C68.8959 5.38114 69.0013 5.40698 69.1068 5.44574L69.0079 6.97674C68.7442 6.89922 68.4674 6.86046 68.1773 6.86046C67.2281 6.86046 66.536 7.16408 66.1009 7.77132C65.679 8.36563 65.4681 9.18605 65.4681 10.2326V14.6512H63.9256V7.73256Z" fill="white"/>
<path d="M78.7965 13.0039C78.2428 13.7016 77.6363 14.1925 76.9771 14.4767C76.3179 14.7481 75.5533 14.8837 74.6832 14.8837C73.9581 14.8837 73.3055 14.761 72.7254 14.5155C72.1453 14.2571 71.6509 13.9147 71.2422 13.4884C70.8467 13.062 70.5369 12.5581 70.3128 11.9767C70.1018 11.3953 69.9964 10.7752 69.9964 10.1163C69.9964 9.41861 70.115 8.77907 70.3523 8.19767C70.5896 7.60336 70.9192 7.09948 71.3411 6.68605C71.763 6.25969 72.264 5.93023 72.844 5.69767C73.4241 5.46512 74.0569 5.34884 74.7425 5.34884C75.3885 5.34884 75.9818 5.45866 76.5223 5.67829C77.0628 5.88501 77.5242 6.19509 77.9066 6.60853C78.3021 7.00904 78.6053 7.50646 78.8162 8.10077C79.0272 8.68217 79.1327 9.34755 79.1327 10.0969V10.5814H71.6575C71.6839 10.969 71.7762 11.3437 71.9344 11.7054C72.1058 12.0543 72.3233 12.3643 72.587 12.6357C72.8506 12.8941 73.1605 13.1008 73.5164 13.2558C73.8724 13.4109 74.2613 13.4884 74.6832 13.4884C75.3555 13.4884 75.9224 13.3721 76.3839 13.1395C76.8453 12.907 77.2606 12.5646 77.6297 12.1124L78.7965 13.0039ZM77.4715 9.30232C77.4451 8.52713 77.1881 7.90698 76.7003 7.44186C76.2125 6.97674 75.5401 6.74419 74.6832 6.74419C73.8262 6.74419 73.1341 6.97674 72.6067 7.44186C72.0794 7.90698 71.763 8.52713 71.6575 9.30232H77.4715Z" fill="white"/>
<path d="M89.2115 13.0426H89.172C88.8819 13.5594 88.4205 13.9987 87.7877 14.3605C87.168 14.7093 86.4429 14.8837 85.6124 14.8837C84.9664 14.8837 84.3599 14.7674 83.793 14.5349C83.2261 14.2894 82.7317 13.9535 82.3099 13.5271C81.9012 13.1008 81.5782 12.5969 81.3409 12.0155C81.1036 11.4341 80.9849 10.801 80.9849 10.1163C80.9849 9.43153 81.1036 8.79845 81.3409 8.21705C81.5782 7.63566 81.9078 7.13178 82.3296 6.70543C82.7515 6.27907 83.2591 5.94961 83.8524 5.71705C84.4588 5.47158 85.1246 5.34884 85.8497 5.34884C86.522 5.34884 87.1351 5.4845 87.6888 5.75581C88.2557 6.02713 88.7501 6.40827 89.172 6.89922H89.2115V0H90.754V14.6512H89.2115V13.0426ZM89.2115 10.1163C89.2115 9.63824 89.1324 9.19897 88.9742 8.79845C88.8292 8.38501 88.6117 8.02971 88.3216 7.73256C88.0316 7.42248 87.6822 7.18346 87.2735 7.0155C86.878 6.83463 86.4298 6.74419 85.9288 6.74419C85.4278 6.74419 84.973 6.83463 84.5643 7.0155C84.1688 7.18346 83.826 7.42248 83.5359 7.73256C83.2459 8.02971 83.0218 8.38501 82.8636 8.79845C82.7186 9.19897 82.6461 9.63824 82.6461 10.1163C82.6461 10.5943 82.7186 11.0401 82.8636 11.4535C83.0218 11.854 83.2459 12.2093 83.5359 12.5194C83.826 12.8165 84.1688 13.0556 84.5643 13.2364C84.973 13.4044 85.4278 13.4884 85.9288 13.4884C86.4298 13.4884 86.878 13.4044 87.2735 13.2364C87.6822 13.0556 88.0316 12.8165 88.3216 12.5194C88.6117 12.2093 88.8292 11.854 88.9742 11.4535C89.1324 11.0401 89.2115 10.5943 89.2115 10.1163Z" fill="white"/>
<path d="M93.7659 5.5814H95.3084V14.6512H93.7659V5.5814ZM93.4099 2.03488C93.4099 1.73773 93.5154 1.47933 93.7264 1.25969C93.9505 1.04005 94.2207 0.930233 94.5371 0.930233C94.8536 0.930233 95.1172 1.04005 95.3282 1.25969C95.5523 1.47933 95.6644 1.73773 95.6644 2.03488C95.6644 2.35788 95.5589 2.62274 95.3479 2.82946C95.137 3.03618 94.8667 3.13953 94.5371 3.13953C94.2076 3.13953 93.9373 3.03618 93.7264 2.82946C93.5154 2.62274 93.4099 2.35788 93.4099 2.03488Z" fill="white"/>
<path d="M103.441 6.86046H100.712V11.3953C100.712 11.6925 100.718 11.9703 100.732 12.2287C100.745 12.4742 100.797 12.6938 100.89 12.8876C100.982 13.0685 101.12 13.2171 101.305 13.3333C101.49 13.4367 101.753 13.4884 102.096 13.4884C102.32 13.4884 102.551 13.4625 102.788 13.4109C103.025 13.3592 103.25 13.2817 103.461 13.1783L103.52 14.5543C103.256 14.6705 102.96 14.7545 102.63 14.8062C102.314 14.8579 102.01 14.8837 101.72 14.8837C101.167 14.8837 100.725 14.8127 100.395 14.6705C100.066 14.5284 99.8087 14.3282 99.6241 14.0698C99.4395 13.8114 99.3143 13.4948 99.2484 13.1202C99.1956 12.7326 99.1693 12.3062 99.1693 11.8411V6.86046H97.1521V5.5814H99.1693V3.00388H100.712V5.5814H103.441V6.86046Z" fill="white"/>
<path d="M113.597 13.0039C113.043 13.7016 112.437 14.1925 111.777 14.4767C111.118 14.7481 110.354 14.8837 109.483 14.8837C108.758 14.8837 108.106 14.761 107.526 14.5155C106.946 14.2571 106.451 13.9147 106.042 13.4884C105.647 13.062 105.337 12.5581 105.113 11.9767C104.902 11.3953 104.797 10.7752 104.797 10.1163C104.797 9.41861 104.915 8.77907 105.153 8.19767C105.39 7.60336 105.719 7.09948 106.141 6.68605C106.563 6.25969 107.064 5.93023 107.644 5.69767C108.224 5.46512 108.857 5.34884 109.543 5.34884C110.189 5.34884 110.782 5.45866 111.323 5.67829C111.863 5.88501 112.324 6.19509 112.707 6.60853C113.102 7.00904 113.406 7.50646 113.616 8.10077C113.827 8.68217 113.933 9.34755 113.933 10.0969V10.5814H106.458C106.484 10.969 106.576 11.3437 106.735 11.7054C106.906 12.0543 107.124 12.3643 107.387 12.6357C107.651 12.8941 107.961 13.1008 108.317 13.2558C108.673 13.4109 109.062 13.4884 109.483 13.4884C110.156 13.4884 110.723 13.3721 111.184 13.1395C111.646 12.907 112.061 12.5646 112.43 12.1124L113.597 13.0039ZM112.272 9.30232C112.245 8.52713 111.988 7.90698 111.501 7.44186C111.013 6.97674 110.34 6.74419 109.483 6.74419C108.626 6.74419 107.934 6.97674 107.407 7.44186C106.88 7.90698 106.563 8.52713 106.458 9.30232H112.272Z" fill="white"/>
<path d="M116.458 0H118V14.6512H116.458V0Z" fill="white"/>
<path d="M0 0H43V3H0V0Z" fill="white"/>
<path d="M0 6H43V9H0V6Z" fill="white"/>
<path d="M0 12H43V14.9999H7L3.5 20L0 24.9999V14.9999V12Z" fill="white"/>
</svg>
